<?xml version="1.0" encoding="utf-8"?>
<!DOCTYPE svg PUBLIC "-//W3C//DTD SVG 20010904//EN" "http://www.w3.org/TR/2001/REC-SVG-20010904/DTD/svg10.dtd">
<svg version="1.0" xmlns="http://www.w3.org/2000/svg" width="202pt" height="202pt" viewBox="0 0 202 202" preserveAspectRatio="xMidYMid meet">
<g fill="#D42243FF">
<path d="M 49.78 114.25 C 43.44 106.98 38.99 95.03 39.01 85.28 C 39.03 72.07 43.70 61.27 53.16 52.51 C 63.26 43.17 74.46 39.30 88.47 40.33 C 95.31 40.83 97.74 41.55 104.89 45.21 C 109.51 47.57 113.78 50.29 114.39 51.25 C 115.34 52.76 111.11 57.37 84.00 84.50 C 66.68 101.82 52.24 116.00 51.91 116.00 C 51.58 116.00 50.62 115.21 49.78 114.25Z"/></g>
<g fill="#355CACFF">
<path d="M 74.25 128.48 C 67.85 127.09 60.69 123.67 55.66 119.59 L 52.83 117.29 L 84.96 85.39 L 117.10 53.50 L 119.42 56.00 C 127.83 65.09 132.11 82.38 128.94 94.50 C 127.05 101.74 125.92 103.67 122.76 105.09 C 118.85 106.86 116.00 110.67 115.72 114.53 C 115.44 118.37 112.28 120.86 106.73 121.62 C 102.94 122.14 101.98 121.90 100.15 119.93 C 97.58 117.17 97.45 115.23 99.62 112.13 C 100.97 110.20 101.96 109.87 105.57 110.16 C 109.22 110.45 110.06 110.17 110.89 108.35 C 111.74 106.49 111.47 106.02 108.92 104.97 C 102.80 102.43 95.63 105.65 92.94 112.15 C 91.32 116.06 93.15 122.40 96.54 124.62 C 97.89 125.51 99.00 126.58 99.00 127.01 C 99.00 127.92 87.68 130.04 83.42 129.92 C 81.81 129.88 77.69 129.23 74.25 128.48Z"/></g>
<g fill="#F4991EFF">
<path d="M 12.85 132.12 C 7.88 128.97 5.09 125.57 2.61 119.63 C -1.62 109.47 1.02 104.65 22.82 82.68 C 32.54 72.87 41.24 64.44 42.15 63.95 C 43.54 63.18 43.42 64.09 41.42 69.77 C 36.07 84.93 39.17 100.64 50.49 115.66 C 51.79 117.39 39.14 130.26 33.43 133.03 C 27.08 136.11 18.55 135.73 12.85 132.12Z"/></g>
<g fill="#58C0E3FF">
<path d="M 126.53 102.25 C 132.97 87.19 129.80 67.18 119.17 55.74 L 116.61 52.98 L 122.55 47.46 C 129.14 41.35 136.59 38.35 142.71 39.34 C 156.84 41.63 165.36 54.68 161.41 67.98 C 159.95 72.91 158.29 74.97 144.71 88.73 C 135.64 97.92 128.87 104.00 127.71 104.00 C 126.26 104.00 125.97 103.57 126.53 102.25Z"/></g>
<g fill="#020204FF">
<path d="M 122.50 126.11 C 118.98 124.58 116.78 121.21 116.25 116.57 C 115.79 112.43 116.04 111.76 119.27 108.53 C 123.06 104.74 127.50 103.91 132.29 106.09 C 138.33 108.84 139.70 118.75 134.73 123.73 C 132.10 126.36 125.87 127.57 122.50 126.11ZM 131.06 121.16 C 135.57 117.50 132.85 109.00 127.17 109.00 C 123.37 109.00 121.00 111.72 121.00 116.10 C 121.00 122.20 126.41 124.92 131.06 121.16Z"/></g>
<g fill="#020204FF">
<path d="M 179.28 124.75 C 186.66 106.11 187.23 105.00 189.47 105.00 C 191.26 105.00 192.14 106.07 193.75 110.25 C 194.87 113.14 196.73 117.86 197.88 120.75 L 199.97 126.00 L 197.55 126.00 C 196.01 126.00 194.90 125.27 194.50 124.00 C 193.99 122.39 192.99 122.00 189.34 122.00 C 185.65 122.00 184.72 122.37 184.29 124.00 C 183.94 125.32 182.93 126.00 181.28 126.00 C 179.69 126.00 178.96 125.55 179.28 124.75ZM 191.45 115.75 C 189.95 110.87 189.20 110.33 188.07 113.32 C 186.52 117.40 186.71 118.00 189.57 118.00 C 191.77 118.00 192.04 117.68 191.45 115.75Z"/></g>
<g fill="#020204FF">
<path d="M 155.00 143.50 C 155.00 133.77 155.14 133.00 156.94 133.00 C 158.51 133.00 158.94 133.81 159.19 137.25 C 159.50 141.48 159.52 141.50 163.75 141.81 L 168.00 142.11 L 168.00 137.56 C 168.00 133.67 168.29 133.00 170.00 133.00 C 171.87 133.00 172.00 133.67 172.00 143.50 C 172.00 153.23 171.86 154.00 170.06 154.00 C 168.49 154.00 168.06 153.19 167.81 149.75 C 167.50 145.51 167.49 145.50 163.50 145.50 C 159.51 145.50 159.50 145.51 159.19 149.75 C 158.94 153.19 158.51 154.00 156.94 154.00 C 155.14 154.00 155.00 153.23 155.00 143.50Z"/></g>
<g fill="#020204FF">
<path d="M 98.31 125.05 C 91.80 121.08 90.97 113.83 96.40 108.40 C 99.23 105.57 100.53 105.00 104.15 105.02 C 109.34 105.03 111.30 106.06 110.43 108.32 C 109.93 109.63 108.98 109.86 106.01 109.38 C 101.41 108.65 98.00 111.40 98.00 115.85 C 98.00 119.85 101.14 122.36 105.91 122.17 C 110.32 122.00 112.19 124.29 109.03 125.98 C 106.09 127.56 101.81 127.18 98.31 125.05Z"/></g>
<g fill="#020204FF">
<path d="M 112.00 143.50 L 112.00 133.00 L 119.07 133.00 C 125.27 133.00 126.11 133.22 125.81 134.75 C 125.56 136.07 124.31 136.58 120.68 136.81 C 116.38 137.08 115.91 137.35 116.19 139.31 C 116.44 141.11 117.25 141.55 120.75 141.81 C 123.56 142.01 125.00 142.59 125.00 143.50 C 125.00 144.41 123.56 144.99 120.75 145.19 C 116.97 145.47 116.50 145.77 116.50 148.00 C 116.50 150.27 116.93 150.53 121.25 150.80 C 124.58 151.02 126.00 151.54 126.00 152.55 C 126.00 153.68 124.44 154.00 119.00 154.00 L 112.00 154.00 L 112.00 143.50Z"/></g>
<g fill="#020204FF">
<path d="M 144.79 125.90 C 142.52 125.03 142.25 124.57 143.17 123.10 C 144.11 121.60 144.82 121.50 148.19 122.40 C 151.30 123.23 152.28 123.16 152.96 122.06 C 154.23 120.01 153.21 118.33 149.84 116.93 C 143.91 114.48 142.15 109.98 145.83 106.65 C 147.71 104.95 154.52 104.41 156.70 105.79 C 158.87 107.17 156.29 109.36 152.42 109.43 C 147.48 109.52 146.90 111.64 151.31 113.49 C 153.23 114.29 155.52 115.66 156.40 116.54 C 158.40 118.54 158.48 123.36 156.54 124.97 C 154.52 126.64 148.06 127.16 144.79 125.90Z"/></g>
<g fill="#020204FF">
<path d="M 139.39 154.35 C 138.23 154.10 135.98 152.54 134.39 150.88 C 132.08 148.47 131.50 146.97 131.50 143.35 C 131.50 139.51 131.99 138.40 134.77 135.92 C 137.44 133.53 138.93 133.00 142.96 133.00 C 148.01 133.00 149.40 133.80 148.48 136.18 C 148.13 137.11 146.71 137.43 144.08 137.18 C 137.36 136.54 133.81 142.42 137.62 147.87 C 138.98 149.80 139.96 150.13 143.61 149.83 C 147.92 149.49 150.25 151.15 148.25 153.15 C 147.18 154.22 142.05 154.91 139.39 154.35Z"/></g>
<g fill="#020204FF">
<path d="M 97.00 145.50 C 97.00 137.10 96.97 137.00 94.50 137.00 C 92.67 137.00 92.00 136.47 92.00 135.00 C 92.00 133.18 92.67 133.00 99.50 133.00 C 106.33 133.00 107.00 133.18 107.00 135.00 C 107.00 136.47 106.33 137.00 104.50 137.00 C 102.03 137.00 102.00 137.10 102.00 145.50 C 102.00 153.90 101.97 154.00 99.50 154.00 C 97.03 154.00 97.00 153.90 97.00 145.50Z"/></g>
<g fill="#020204FF">
<path d="M 168.00 117.57 C 168.00 109.18 167.98 109.13 165.34 108.82 C 163.72 108.62 162.58 107.81 162.43 106.75 C 162.21 105.22 163.10 105.00 169.59 105.00 C 176.33 105.00 177.00 105.18 177.00 107.00 C 177.00 108.47 176.33 109.00 174.50 109.00 C 172.03 109.00 172.00 109.10 172.00 117.50 C 172.00 125.33 171.84 126.00 170.00 126.00 C 168.16 126.00 168.00 125.33 168.00 117.57Z"/></g>
<g fill="#645669FF">
<path d="M 92.35 76.75 C 105.08 63.96 115.70 53.63 115.95 53.79 C 116.51 54.14 70.77 100.00 69.86 100.00 C 69.50 100.00 79.62 89.54 92.35 76.75Z"/></g>
<g fill="#F6C88BFF">
<path d="M 22.50 82.00 C 31.84 72.65 39.70 65.00 39.98 65.00 C 40.25 65.00 32.84 72.65 23.50 82.00 C 14.16 91.35 6.30 99.00 6.02 99.00 C 5.75 99.00 13.16 91.35 22.50 82.00Z"/></g>
<g fill="#989A9CFF">
<path d="M 154.44 143.50 L 154.50 132.50 L 157.50 132.36 C 160.28 132.22 160.30 132.24 157.78 132.67 L 155.07 133.13 L 154.73 143.81 L 154.39 154.50 L 154.44 143.50Z"/></g>
<g fill="#989A9CFF">
<path d="M 172.21 143.82 C 172.01 133.62 171.90 133.12 169.75 132.71 L 167.50 132.27 L 169.78 132.14 C 172.86 131.95 173.13 133.07 172.75 144.57 L 172.42 154.50 L 172.21 143.82Z"/></g>
<g fill="#9D3C6BFF">
<path d="M 103.00 65.50 C 109.31 59.17 114.69 54.00 114.97 54.00 C 115.24 54.00 110.31 59.17 104.00 65.50 C 97.69 71.83 92.31 77.00 92.03 77.00 C 91.76 77.00 96.69 71.83 103.00 65.50Z"/></g>
<g fill="#989A9CFF">
<path d="M 107.08 135.29 C 107.01 133.24 106.44 133.06 99.25 132.74 L 91.50 132.40 L 99.28 132.20 C 107.22 132.00 109.02 132.86 107.67 136.22 C 107.39 136.92 107.12 136.51 107.08 135.29Z"/></g>
<g fill="#989A9CFF">
<path d="M 111.37 144.50 C 111.37 139.00 111.54 136.88 111.74 139.78 C 111.94 142.69 111.94 147.19 111.73 149.78 C 111.53 152.38 111.36 150.00 111.37 144.50Z"/></g>
<g fill="#989A9CFF">
<path d="M 172.35 118.50 C 172.35 113.55 172.52 111.40 172.73 113.72 C 172.94 116.04 172.94 120.09 172.74 122.72 C 172.53 125.35 172.36 123.45 172.35 118.50Z"/></g>
<g fill="#645669FF">
<path d="M 167.35 117.50 C 167.35 112.55 167.52 110.40 167.73 112.72 C 167.94 115.04 167.94 119.09 167.74 121.72 C 167.53 124.35 167.36 122.45 167.35 117.50Z"/></g>
<g fill="#645669FF">
<path d="M 159.68 141.29 C 159.40 140.83 160.90 140.63 163.02 140.83 L 166.88 141.20 L 167.30 136.85 L 167.72 132.50 L 167.61 137.00 C 167.50 141.43 167.45 141.50 163.84 141.80 C 161.83 141.97 159.96 141.74 159.68 141.29Z"/></g>
<g fill="#F6C88BFF">
<path d="M 37.00 131.72 C 37.00 131.57 40.49 128.09 44.75 123.97 L 52.50 116.50 L 45.03 124.25 C 38.08 131.45 37.00 132.46 37.00 131.72Z"/></g>
<g fill="#989A9CFF">
<path d="M 111.89 132.70 C 112.34 132.26 115.80 132.04 119.60 132.21 L 126.50 132.52 L 118.80 133.01 C 114.56 133.28 111.45 133.14 111.89 132.70Z"/></g>
<g fill="#BFC4CDFF">
<path d="M 166.25 104.27 C 168.31 104.06 171.69 104.06 173.75 104.27 C 175.81 104.49 174.12 104.66 170.00 104.66 C 165.88 104.66 164.19 104.49 166.25 104.27Z"/></g>
<g fill="#645669FF">
<path d="M 114.73 154.28 C 116.50 154.06 119.65 154.05 121.73 154.27 C 123.80 154.49 122.35 154.67 118.50 154.67 C 114.65 154.68 112.95 154.50 114.73 154.28Z"/></g>
<g fill="#645669FF">
<path d="M 167.40 153.60 C 167.10 152.82 167.04 150.69 167.27 148.85 C 167.65 145.78 167.69 145.85 167.84 149.68 C 167.97 153.16 168.38 153.93 170.25 154.29 L 172.50 154.73 L 170.22 154.86 C 168.96 154.94 167.69 154.37 167.40 153.60Z"/></g>
</svg>
